<?xml version="1.0" encoding="utf-8"?>
<!-- Generator: Adobe Illustrator 24.2.0, SVG Export Plug-In . SVG Version: 6.00 Build 0)  -->
<svg version="1.1" id="Layer_1" xmlns="http://www.w3.org/2000/svg" xmlns:xlink="http://www.w3.org/1999/xlink" x="0px" y="0px"
	 viewBox="0 0 684 684" style="enable-background:new 0 0 684 684;" xml:space="preserve">
<style type="text/css">
	.st0{fill:#DA251C;}
	.st1{fill:#FCF504;}
</style>
<g>
	<g>
		<g>
			<path class="st0" d="M335.3,8h14.5c36.1,1,72.2,7.9,105.9,20.9c75.7,28.6,139.4,87.3,174.5,160.1c15.8,32.3,25.9,67.4,29.8,103.1
				c1.2,5.4-0.2,11.1,2,16.3v42.9l-1-2.1c-1,24.3-5.8,48.3-12.8,71.6c-17.8,58.4-52.9,111.5-99.6,150.8c-1,1.1-3.1,2.2-2.1,4.1
				c13.5,31.1,27,62.3,40.5,93.4c1.1,2.2,2,4.5,2.8,6.9H92.4c14.5-33.8,29.2-67.6,43.9-101.4c0.5-1,0.4-1.8-0.4-2.5
				c-23.1-19.3-43.2-42.1-60.1-67c-27.3-40.6-45-87.6-51.4-136.1c-1.4-10.8-2-21.6-2.6-32.4v-17.3c0.8-21.9,3.3-43.7,8.5-65
				c15.1-64.7,51.4-124,101.5-167.5c45.1-39.6,101.6-66,160.9-75.2C307,9.6,321.1,8.4,335.3,8z M305,30.7
				c-45.7,5.8-90.1,22.2-128.4,47.8c-43.3,28.8-79.1,69-102.4,115.6C56.3,229.4,45.8,268.4,43.1,308c-1,22.7-0.6,45.6,3.3,68
				c11.8,74,53,142.7,112.4,188.3c1.4,1.2,3.2,2.2,4.1,3.8c-11.3,25.6-22.7,51.2-33.9,76.9c-1.3,3.2-3.1,6.1-3.8,9.5
				c144.2-0.1,288.3-0.1,432.5,0c-12.5-28.8-25-57.6-37.2-86.5c56.3-41.7,97.3-103.6,113.2-171.9c16.1-68.2,7.3-142.2-25.1-204.4
				c-17.1-33.5-40.7-63.4-68.9-88.3c-35-31-77.4-53.6-122.6-65.2C380.6,28.3,342.4,26.5,305,30.7z"/>
		</g>
	</g>
	<g>
		<path class="st0" d="M350.9,218.9l56-56l2.7-3.5l-10.4-10.6l-53-53l-4.2-3.7l-2.8,2l-58.5,58.5l-6.5,7.4l67.9,67.5L350.9,218.9z
			 M315.2,193l10.2-31.5l-26.8-19.5h33.2l10.2-31.5l10.2,31.5h33.2l-26.8,19.5l10.3,31.8l-26.8-19.7L315.2,193z"/>
		<polygon class="st0" points="255.1,611.7 263.9,611.7 259.7,599.4 		"/>
		<polygon class="st0" points="323.7,511.6 328.3,503 328.1,258.8 321.4,267.9 321.4,505 		"/>
		<path class="st0" d="M136.6,654.5L136.6,654.5l402.1,0v0C404.7,654.4,270.7,654.4,136.6,654.5z"/>
		<path class="st0" d="M446,541.2c-5.6,10.1-11.3,20.3-16.9,30.4c-15.5,0.3-30.9,0.1-46.4,0.1c-5.6-10.2-11.4-20.3-16.9-30.5
			c-15.7,0.1-31.4-0.2-47.2,0.1c-5.5,10.1-11.3,20-16.6,30.2c-15.8,0.4-31.6,0.1-47.3,0.1c-5.5-10.2-11.3-20.2-16.8-30.4
			c-16,0.1-32.1-0.3-48.1,0.2c-4.4,11.7-9.8,22.9-14.5,34.5c-9.1,21.1-18.1,42.3-27.1,63.5c129.1,0,258.2,0,387.4,0
			c-13.9-32.8-28.7-65.2-42.4-98C477.5,540.8,461.8,541.4,446,541.2z M259.7,580.5l7.2,0.1l-7.5,6.8h-3.6L259.7,580.5z M208.2,596.5
			l-10.3,0l-0.2,29l-6.4,0l0.1-28.9l-10-0.2l-0.1-5.9l26.9,0.2L208.2,596.5z M238.5,625.5l-5.9,0l-0.2-15.1l-13.5,0l-0.2,15.1
			l-6.2,0l-0.1-34.9l6.4,0l0.2,13.5l13,0.1l0-13.8l6.9,0.2L238.5,625.5z M269.7,625.5l-3.3-8.1l-13.7,0l-2.6,7.9l-6.9,0.2l1.3-4.7
			l11.4-30.2l7.2,0.3l11.3,28.5l1.7,6L269.7,625.5z M286.5,625.5l-6.2,0l0.2-35c0,0,4,0.1,6,0.1
			C286.8,602.2,286.5,625.5,286.5,625.5z M326.5,625.5L313,602.8l-0.4,22.7l-6.3-0.1l0.2-34.9l6.6,0.1l13.3,22.7l0.1-22.9l6.8-0.1
			l0.1,35.2L326.5,625.5z M371.2,620.3c-4.1,3.7-9.6,5.8-15.2,5.5c-6.1,0.2-12.4-3.2-14.8-8.9c-3.3-7.4-2.6-17.3,3.7-23
			c4.6-4.4,11.9-4.4,17.7-2.9c4.3,1,6.8,5.1,7.9,9.1c-2.2,0.5-4.4,0.9-6.6,1.3c-1-1.8-1.9-3.9-4-4.7c-5.7-3.3-13.6,1.8-13.6,8.2
			c-0.1,3.7-0.5,7.7,1.8,10.8c3.3,5.5,11.5,4.8,16,1.3c0-1.5,0-2.9,0-4.4c-2.6-0.1-5.3-0.1-7.9-0.1c0-2,0-4.1,0-6.1
			c4.6,0.1,14.9,0.1,14.9,0.1S371.1,616.1,371.2,620.3z M403.7,615c0,4.9-3.6,9.9-8.6,10.5c-3.3,0.3-6.7,0.5-9.9-0.2
			c-3.7-1.1-7.3-4.2-7.6-8.3c-1.4-8-0.9-26.4-0.9-26.4l6.9-0.1c0,0-0.1,15,0.2,22.5c0.1,2.5,1,5.4,3.6,6.5c2.3,0.5,4.8,0.5,7.1,0.1
			c2.3-2.2,2.7-5.5,2.8-8.5c0.1-6.8,0.2-20.3,0.2-20.3s4.2-0.1,6.3,0C403.7,598.8,403.9,606.9,403.7,615z M452.8,580.7l4.4-0.1
			l5.7,6.9l-4.9,0.4l-2.8-3.6l-2.6,3.4l-4.7,0.1L452.8,580.7z M426.6,610l0,15.5l-7.2,0.1l0.1-15.5l-11.7-19.3l7.6-0.2l8,13.5
			l7.9-13l7.7-0.4L426.6,610z M467.5,625.6l-24.9-0.1l0-34.9l24.8,0l0.2,5.2l-18.1,0l0,8.5l16.8,0.2l0,5.6l-17.1,0.3l0.1,9.1
			l18.3-0.1L467.5,625.6z M494.2,590.8l6.3,0l-0.1,34.8l-6.5,0l-13.6-21.6l0,21.8h-6.7v-35h6.7l14,23.2L494.2,590.8z"/>
		<path class="st0" d="M181.5,526.5c21.9,0.3,43.8,0.1,65.7,0.1c4.7,7.7,17.8,30.6,17.8,30.6s18.1,0,27.2,0.1
			c5.3-9.5,17.1-30.7,17.1-30.7s66.1-0.5,66.9,1c3.4,6.9,7.4,13.5,11.1,20.3c1.8,3.2,3.4,6.5,5.5,9.5c8.8-0.2,17.6-0.1,26.4,0
			c6.3-10,11.4-20.7,17.6-30.8c21.9,0.2,43.8,0.2,65.7,0c4.1,8.9,8.2,17.8,11.4,27c0.5,0.1,1.4,0.2,1.9,0.2
			c43.4-33.3,76.9-79.2,95.2-130.8c15.6-43.4,20.1-90.5,13.5-136.1c-6-41-21-80.8-44-115.4c-23.1-35.2-54.1-65.1-90-87.1
			c-33.7-20.6-71.7-34.3-110.9-39.3c-49.5-6.7-100.8,0-147,19.3C188.8,82.7,149.8,112.1,120,149c-19.8,24.5-35.5,52.2-46.3,81.8
			C57.9,274.4,52.9,322,59.6,368c9.7,70.9,47.9,137.1,103.7,181.8c1.9,1.4,3.5,3.3,5.8,4.2C173.5,545,176.8,535.4,181.5,526.5z
			 M532.2,448.8c0.5,1.1,0.8,2.3,1,3.5c-34.6,0.3-69.2-0.2-103.7,0.2c0.1,2.2,0.2,4.5,0.2,6.7c36,0,72.1-0.1,108.1,0
			c6.6,13,12.5,26.3,17,40.1c-45,0-90,0-135,0c-0.1-3.3-0.1-6.5-0.2-9.8c40.4-0.3,80.8,0,121.2-0.1c-2.4-6.8-5.8-13.1-8.5-19.8
			c-2-0.6-4.1-1.1-6.2-0.7c-3.3,0.6-6.7-0.2-10-0.2c-8.6,0.7-17.3-0.5-26,0.4c-7.7-0.5-15.3-0.4-23-0.2c-11.3-0.2-22.7-0.4-34,0.3
			c-4.5-0.3-9.2,0.8-13.6-0.7c0.2-8.7,0.1-17.3,0-26c32.4-0.4,64.8,0,97.2-0.2c-2.8-6-6.8-11.3-10.1-17c-29-0.1-58,0-87,0
			c0-8.8,0-17.5,0-26.3c7.5-0.5,15,0.5,22.5-0.2c14.7,1.3,29.4-0.6,44,0.2c0.5-0.1,1.5-0.2,2-0.2c-3.4-5.8-7.9-10.7-11.6-16.3
			c-3.1-0.9-6.3-0.1-9.5-0.4c-14.3,0.2-28.6,0-42.9,0.1c-1.6,0.1-3.1-0.2-4.6-0.7c0.3-8.7,0.1-17.4,0-26.1
			c11.4-0.4,22.7-0.1,34.1-0.1c0.1-1.6-1.5-2.5-2.4-3.6c-3.9-4.4-7.9-8.8-12-13.1c-6.5-0.7-13.1,0-19.6-0.3
			c-0.1-3.3-0.2-6.5-0.1-9.8c7.9,0,15.7,0.1,23.6,0c9.7,10.1,19,20.6,27.9,31.4c1.4,1.6,3.1,3,3.8,5.1c-15,0.1-30,0.1-45,0
			c-0.1,2.1-0.3,4.3-0.4,6.4c2.8,1.1,5.7,0.5,8.6,0.5c14.3,0.1,28.5,0,42.8,0.1c8.6,12.2,18.2,23.7,26.2,36.3
			c-25.8-0.1-51.6,0-77.4-0.1c0,2.4,0,4.7-0.1,7.1c27.5,0.2,55-0.1,82.5,0.1C519,426.5,525.8,437.5,532.2,448.8z M181.2,201.2
			l3.3-1.7L199,214l2.9,0l15.1-15.1l8.8,9.1l-16.5,16.1l16.7,16.8l16.8-16.3l8.8,8.5L235.1,250l16.7,16.6l16.3-16.5l8.1,7.9
			l-0.6,2.6l-15,15.1l15.5,15.3l2.7,0l22-22.1L211,179l-2.7-4.7l7.8-7.8L233,183l15.5-15.4l1.4-0.4l7.7,7.4l0.3,1.2L242.2,192
			l16,16.2l5.4-4.6l11.5-11.6l8.4,8.4l-1.4,2.6l-14.3,14.1l13.2,14l3.6,2.6l15.1-15l2.9,0.7l7.2,7.3L293.2,243l16.7,16.9l21-21
			l1.8-2.8l-4.3-4.6l-87-87l-0.5-2.6l8-7.7l16.2,16.5l16.9-16.9l-16.5-16.7l8-7.8l2.9,1.2l13.6,13.6l2.6-0.8l13.9-14l-0.8-3
			L291.2,92L300,83l14.4,14.5l3.1,0.8L332.8,83l-3.6-4.3l-12.5-12.7l8.5-8.7L342,73.8l16.2-16.1l9.5,8.4L351.2,83l14.5,14.4l3,1.2
			L384,83.1l8.2,7.7l-0.7,2.7l-14,14l-0.2,1.3l15.7,16l17-15.8l8.6,8.1l-16.4,16.8l16.7,16.9l16.9-16.7l7.8,8.2l-1.4,3l-88,87.9
			l-3.2,3.8l23,22.7l2.6-2l14.3-14.1l-16.1-16.7l8.2-8.7l5.3,4.5l11.6,11.3l16.6-16.7L400.1,201l8.9-8.9l16.8,16.5l14.9-15.1
			l0.6-2.8l-15.2-15l7.5-8.3l3.5,1.4l13.9,14l16.9-16.6l8.7,8.9L383.2,269l21.4,21.4l2.8,1.5l15-15.3l-1-3L406.9,259l9-8.9
			l16.2,16.5L449,250l-16.3-16.9l8.3-8l3,1.9l13.5,13.5l1,0.1l16.3-16.5l-16.3-16.3l8.1-8.3l1,0.1l15,14.9l3-0.8L498,201l2.9-1.7
			l7.7,7.7l-0.2,1.3l-99.9,100.2l0,195.5l2.6,8.1l-16,0.3l2.6-8.4l0-204l-7-5.5l0.1,208.6l3,9.3l-16.1-0.1l2.8-8.3l0-221.1l-6.5-6.2
			l-0.2,50.3l0,178l2.3,7.5l-32.9,0l2.3-8.5l0-256.1l-2.5-2.6l-4.2,2.8l-0.1,256l2.8,8.4l-33.4,0.1l2.4-7.4l0.1-228.1l-6.9,6.5
			l0,221.6l2.6,7.2h-15.8l2.8-8.4l0-185.9l-0.2-23.3l-6.4,5.9L286.4,504l2.6,8.4l-16.5-0.3l3.1-8.1V308.9l-2.5-4L175.2,208
			L181.2,201.2z M129.9,499.3c3.5-14,10.2-27,16.4-40c35.9-0.3,71.9,0.1,107.8-0.2c1-2,0.3-4.5,0.5-6.8c-32.2,0-64.4,0-96.6,0
			c-2.6-0.1-5.3,0.5-7.7-0.8c7.3-12.1,14.3-24.4,22.4-36c27.3,0.1,54.6,0,81.9,0c0-2.3,0-4.7,0-7c-25.5-0.1-51.1-0.1-76.6,0
			c0.3-1.6,1.1-3.1,2-4.4c7.5-10.5,14.9-21,22.9-31.2c1-1.1,2.8-0.6,4.1-0.8c15.9-0.2,31.8,0.4,47.7-0.3c0-2.2,0-4.4,0-6.6
			c-15.1-0.2-30.2,0.1-45.3-0.1c1.4-2.8,3.7-4.8,5.7-7.2c8.3-10.1,16.9-19.9,26-29.3c7.8-0.2,15.6,0,23.4-0.1c0.1,3.3,0.1,6.5,0,9.8
			c-6.3,0.1-12.7-0.2-19,0.1c-5,4.6-9.3,10-13.9,15c0,0.5-0.1,1.5-0.2,2c11.1-0.3,22.2-0.3,33.3-0.1c-0.3,8.8,0.1,17.6-0.2,26.4
			c-10.8,0.9-21.6,0-32.4,0.3c-6.6-0.5-13.3,0.2-19.9-0.2c-1.5-0.2-2.9,0-4.4,0.5c-3.5,5.3-7.8,10.1-11.1,15.5l-0.1,1.3
			c7.5-1.2,15.1,0.2,22.6-0.6c8.6,0.5,17.3,0,25.9,0.2c6.5-0.2,13.1-0.7,19.6,0.3c-0.2,8.8-0.1,17.5-0.1,26.3c-28.9,0-57.8,0-86.7,0
			c-3.5,5.6-7.4,10.9-10.4,16.8c32.4,0.1,64.8-0.2,97.2,0.2c-0.3,8.8-0.1,17.5-0.1,26.3c-37.2,0-74.4,0.1-111.6,0
			c-3.4,6.6-6.8,13.4-8.9,20.6c40.2,0.2,80.4-0.2,120.6,0.2c-0.1,3.3-0.1,6.6,0,9.8C219.6,499.3,174.8,499.4,129.9,499.3z"/>
		<polygon class="st0" points="362.7,494 362.6,264.9 356.3,259 356.3,504 360.2,512.2 		"/>
		<path class="st1" d="M633.6,396c16.1-68.2,7.3-142.2-25.1-204.5c-17.1-33.4-40.7-63.4-68.9-88.3c-35-31-77.4-53.6-122.6-65.2
			c-36.4-9.8-74.6-11.6-112-7.4c-45.7,5.8-90.1,22.2-128.4,47.8c-43.3,28.8-79.1,69-102.4,115.6C56.3,229.5,45.8,268.4,43.1,308
			c-1,22.7-0.6,45.6,3.3,68c11.7,73.4,52.3,141.5,110.9,187.1c0.5,0.4,1,0.8,1.5,1.2c1.4,1.2,3.2,2.2,4.1,3.8
			c-7.8,17.7-15.6,35.4-23.5,53.1c-3.5,7.9-7,15.8-10.4,23.7c-1.3,3.2-3.1,6.1-3.8,9.5c3.8,0,7.7,0,11.5,0c134-0.1,268,0,402.1,0
			c6.3,0,12.6,0,18.9,0c-6.3-14.5-12.7-29.1-18.9-43.7c-6.1-14.3-12.2-28.5-18.3-42.8c2.2-1.6,4.3-3.3,6.4-4.9
			C579.9,521.5,618.3,461.7,633.6,396z M59.6,368c-6.6-46-1.7-93.5,14.2-137.2c10.8-29.6,26.5-57.3,46.3-81.8
			c29.8-36.9,68.8-66.3,112.6-84.5c46.2-19.3,97.5-26,147-19.3c39.2,5,77.2,18.7,110.9,39.3c35.9,22,66.9,51.9,90,87.1
			c23,34.6,38,74.3,44,115.4c6.6,45.6,2.1,92.7-13.5,136.1c-18.3,51.5-51.8,97.5-95.2,130.8c-0.5-0.1-1.4-0.2-1.9-0.2
			c-3.2-9.3-7.3-18.2-11.4-27c-21.9,0.2-43.8,0.2-65.7,0c-6.2,10.1-11.3,20.8-17.6,30.8c-8.8-0.1-17.6-0.2-26.4,0
			c-2.2-3-3.8-6.3-5.5-9.5c-3.7-6.8-7.7-13.3-11.1-20.3c-0.8-1.5-66.9-1-66.9-1s-11.8,21.2-17.1,30.7c-9.1-0.2-27.2-0.1-27.2-0.1
			s-13-22.9-17.8-30.6c-21.9,0.1-43.8,0.2-65.7-0.1c-4.7,8.9-8,18.5-12.6,27.5c-2.2-0.9-3.8-2.8-5.8-4.2
			C107.5,505.1,69.3,438.8,59.6,368z M535.6,639.5c-129.1,0-258.2,0-387.4,0c9-21.2,18-42.4,27.1-63.5c4.7-11.6,10.1-22.8,14.5-34.5
			c16-0.5,32.1-0.1,48.1-0.2c5.5,10.2,11.3,20.3,16.8,30.4c15.8,0,31.6,0.3,47.3-0.1c5.3-10.2,11.1-20.1,16.6-30.2
			c15.7-0.3,31.4-0.1,47.2-0.1c5.5,10.2,11.3,20.3,16.9,30.5c15.5,0,31,0.2,46.4-0.1c5.6-10.1,11.2-20.3,16.9-30.4
			c15.7,0.2,31.5-0.4,47.1,0.3C507,574.3,521.7,606.7,535.6,639.5z"/>
		<path class="st1" d="M275.6,308.9V504l-3.1,8.1l16.5,0.3l-2.6-8.4l0.1-203.4l6.4-5.9l0.2,23.3l0,185.9l-2.8,8.4h15.8l-2.6-7.2
			l0-221.6l6.9-6.5l-0.1,228.1l-2.4,7.4l33.4-0.1l-2.8-8.4l0.1-256l4.2-2.8l2.5,2.6l0,256.1l-2.3,8.5l32.9,0l-2.3-7.5l0-178
			l0.2-50.3l6.5,6.2l0,221.1l-2.8,8.3l16.1,0.1l-3-9.3l-0.1-208.6l7,5.5l0,204l-2.6,8.4l16-0.3l-2.6-8.1l0-195.5l99.9-100.2l0.2-1.3
			l-7.7-7.7L498,201l-12.5,12.6l-3,0.8l-15-14.9l-1-0.1l-8.1,8.3l16.3,16.3l-16.3,16.5l-1-0.1L444,227l-3-1.9l-8.3,8L449,250
			l-16.8,16.7L416,250.1l-9,8.9l14.6,14.5l1,3l-15,15.3l-2.8-1.5L383.2,269l93.5-93.7l-8.7-8.9L451,183l-13.9-14l-3.5-1.4l-7.5,8.3
			l15.2,15l-0.6,2.8l-14.9,15.1L409,192.1l-8.9,8.9l16.5,16.2L400,233.9l-11.6-11.3l-5.3-4.5l-8.2,8.7l16.1,16.7l-14.3,14.1l-2.6,2
			l-23-22.7l3.2-3.8l88-87.9l1.4-3l-7.8-8.2L419,150.8l-16.7-16.9l16.4-16.8L410,109l-17,15.8l-15.7-16l0.2-1.3l14-14l0.7-2.7
			l-8.2-7.7l-15.4,15.5l-3-1.2L351.2,83l16.5-16.9l-9.5-8.4L342,73.8l-16.8-16.5l-8.5,8.7l12.5,12.7l3.6,4.3l-15.3,15.4l-3.1-0.8
			L300,83l-8.8,8.9l14.4,14.5l0.8,3l-13.9,14l-2.6,0.8l-13.6-13.6l-2.9-1.2l-8,7.8l16.5,16.7L265,150.8l-16.2-16.5l-8,7.7l0.5,2.6
			l87,87l4.3,4.6l-1.8,2.8l-21,21L293.2,243l16.5-16.4l-7.2-7.3l-2.9-0.7l-15.1,15l-3.6-2.6l-13.2-14l14.3-14.1l1.4-2.6l-8.4-8.4
			l-11.5,11.6l-5.4,4.6l-16-16.2l15.7-16.2l-0.3-1.2l-7.7-7.4l-1.4,0.4L233,183l-16.9-16.5l-7.8,7.8l2.7,4.7l89.9,90l-22,22.1
			l-2.7,0l-15.5-15.3l15-15.1l0.6-2.6l-8.1-7.9l-16.3,16.5L235.1,250l16.6-16.9l-8.8-8.5L226,240.9l-16.7-16.8l16.5-16.1l-8.8-9.1
			L202,214l-2.9,0l-14.5-14.4l-3.3,1.7l-6,6.8l97.9,96.9L275.6,308.9z M356.3,259l6.4,5.9l0.1,229.1l-2.5,18.1l-4-8.1L356.3,259z
			 M274.1,160l6.5-7.4l58.5-58.5l2.8-2l4.2,3.7l53,53l10.4,10.6l-2.7,3.5l-56,56l-8.9,8.7L274.1,160z M328.1,258.8l0.1,244.3
			l-4.6,8.5l-2.2-6.6l-0.1-237.1L328.1,258.8z"/>
		<path class="st1" d="M264.5,499.4c-0.1-3.3-0.1-6.6,0-9.8c-40.2-0.4-80.4,0-120.6-0.2c2.1-7.2,5.5-14,8.9-20.6
			c37.2,0.1,74.4,0,111.6,0c0-8.8-0.2-17.5,0.1-26.3c-32.4-0.3-64.8,0-97.2-0.2c3-5.9,7-11.2,10.4-16.8c28.9,0,57.8,0,86.7,0
			c0-8.8-0.2-17.5,0.1-26.3c-6.5-0.9-13.1-0.4-19.6-0.3c-8.6-0.2-17.3,0.2-25.9-0.2c-7.5,0.8-15.1-0.7-22.6,0.6l0.1-1.3
			c3.3-5.4,7.6-10.2,11.1-15.5c1.4-0.5,2.9-0.7,4.4-0.5c6.7,0.4,13.3-0.3,19.9,0.2c10.8-0.4,21.6,0.5,32.4-0.3
			c0.3-8.8-0.1-17.6,0.2-26.4c-11.1-0.2-22.2-0.3-33.3,0.1c0-0.5,0.1-1.5,0.2-2c4.6-5,8.9-10.4,13.9-15c6.3-0.3,12.7,0,19-0.1
			c0.1-3.3,0.1-6.5,0-9.8c-7.8,0.2-15.6,0-23.4,0.1c-9.1,9.4-17.7,19.2-26,29.3c-1.9,2.4-4.3,4.4-5.7,7.2c15.1,0.2,30.2,0,45.3,0.1
			c0,2.2,0,4.4,0,6.6c-15.9,0.8-31.8,0.1-47.7,0.3c-1.3,0.2-3.1-0.4-4.1,0.8c-8,10.1-15.4,20.7-22.9,31.2c-1,1.3-1.7,2.8-2,4.4
			c25.5-0.1,51.1-0.1,76.6,0c0,2.3,0,4.7,0,7c-27.3,0-54.6,0.1-81.9,0c-8,11.6-15,23.9-22.4,36c2.4,1.2,5.1,0.7,7.7,0.8
			c32.2,0,64.4,0,96.6,0c-0.2,2.2,0.5,4.7-0.5,6.8c-35.9,0.3-71.9-0.1-107.8,0.2c-6.2,13-12.9,26-16.4,40
			C174.8,499.4,219.6,499.3,264.5,499.4z"/>
		<path class="st1" d="M429.5,415.5c0.1-2.4,0.1-4.7,0.1-7.1c25.8,0.1,51.6,0,77.4,0.1c-8-12.6-17.6-24.1-26.2-36.3
			c-14.3-0.1-28.5,0-42.8-0.1c-2.9-0.1-5.9,0.5-8.6-0.5c0.2-2.1,0.3-4.3,0.4-6.4c15,0.1,30,0.1,45,0c-0.7-2.1-2.4-3.5-3.8-5.1
			c-8.9-10.8-18.2-21.3-27.9-31.4c-7.9,0-15.7,0-23.6,0c0,3.3,0,6.5,0.1,9.8c6.5,0.2,13.1-0.5,19.6,0.3c4.1,4.3,8,8.7,12,13.1
			c0.9,1.1,2.4,2,2.4,3.6c-11.4,0-22.7-0.3-34.1,0.1c0.1,8.7,0.2,17.4,0,26.1c1.5,0.5,3,0.8,4.6,0.7c14.3-0.1,28.6,0.1,42.9-0.1
			c3.2,0.3,6.4-0.6,9.5,0.4c3.6,5.6,8.2,10.6,11.6,16.3c-0.5,0-1.5,0.2-2,0.2c-14.7-0.8-29.4,1.1-44-0.2c-7.5,0.6-15-0.3-22.5,0.2
			c-0.1,8.8,0,17.5,0,26.3c29,0,58-0.1,87,0c3.3,5.7,7.3,11.1,10.1,17c-32.4,0.1-64.8-0.2-97.2,0.2c0.1,8.7,0.2,17.3,0,26
			c4.3,1.5,9.1,0.4,13.6,0.7c11.3-0.7,22.7-0.5,34-0.3c7.7-0.2,15.3-0.3,23,0.2c8.6-1,17.3,0.3,26-0.4c3.3-0.1,6.7,0.7,10,0.2
			c2.1-0.4,4.2,0.1,6.2,0.7c2.6,6.7,6.1,13,8.5,19.8c-40.4,0.1-80.8-0.2-121.2,0.1c0,3.3,0.1,6.5,0.2,9.8c45,0,90,0,135,0
			c-4.4-13.8-10.4-27.1-17-40.1c-36-0.1-72.1,0-108.1,0c-0.1-2.2-0.1-4.5-0.2-6.7c34.6-0.4,69.2,0,103.7-0.2c-0.2-1.2-0.5-2.4-1-3.5
			c-6.4-11.3-13.2-22.3-20.2-33.1C484.4,415.5,457,415.7,429.5,415.5z"/>
		<polygon class="st1" points="266.9,580.6 259.7,580.5 255.7,587.3 259.4,587.3 		"/>
		<polygon class="st1" points="455.2,584.2 458,587.8 462.9,587.4 457.2,580.6 452.8,580.7 447.9,587.7 452.7,587.7 		"/>
		<polygon class="st1" points="231.9,604.2 218.9,604.1 218.7,590.6 212.3,590.6 212.4,625.5 218.6,625.5 218.8,610.4 232.3,610.5 
			232.5,625.5 238.5,625.5 238.8,590.6 231.9,590.4 		"/>
		<polygon class="st1" points="181.4,596.4 191.4,596.6 191.4,625.5 197.7,625.5 198,596.5 208.2,596.5 208.3,590.7 181.4,590.5 		
			"/>
		<path class="st1" d="M263,590.9l-7.2-0.3l-11.4,30.2l-1.3,4.7l6.9-0.2l2.6-7.9l13.7,0l3.3,8.1l6.4-0.1l-1.7-6L263,590.9z
			 M255.1,611.7l4.6-12.3l4.3,12.3L255.1,611.7z"/>
		<path class="st1" d="M280.5,590.5l-0.2,35l6.2,0c0,0,0.2-23.3-0.1-35C284.5,590.6,280.5,590.5,280.5,590.5z"/>
		<polygon class="st1" points="326.5,590.4 326.4,613.3 313.1,590.7 306.6,590.5 306.3,625.5 312.6,625.5 313,602.8 326.5,625.5 
			333.4,625.5 333.3,590.3 		"/>
		<path class="st1" d="M356.4,606.6c0,2,0,4,0,6.1c2.6,0,5.3,0,7.9,0.1c0,1.5,0,2.9,0,4.4c-4.6,3.5-12.7,4.2-16-1.3
			c-2.3-3.1-1.9-7.2-1.8-10.8c0-6.4,7.9-11.5,13.6-8.2c2.1,0.8,3,2.9,4,4.7c2.2-0.3,4.4-0.8,6.6-1.3c-1.1-4-3.6-8.1-7.9-9.1
			c-5.8-1.5-13.1-1.5-17.7,2.9c-6.2,5.7-6.9,15.5-3.7,23c2.4,5.8,8.7,9.1,14.8,8.9c5.5,0.3,11.1-1.9,15.2-5.5
			c-0.1-4.2,0-13.6,0-13.6S361,606.7,356.4,606.6z"/>
		<path class="st1" d="M397.5,590.7c0,0-0.1,13.4-0.2,20.3c-0.1,3-0.5,6.3-2.8,8.5c-2.3,0.4-4.8,0.4-7.1-0.1c-2.5-1-3.5-4-3.6-6.5
			c-0.3-7.5-0.2-22.5-0.2-22.5l-6.9,0.1c0,0-0.4,18.5,0.9,26.4c0.3,4.1,3.9,7.2,7.6,8.3c3.3,0.7,6.6,0.5,9.9,0.2
			c5-0.6,8.7-5.6,8.6-10.5c0.2-8.1,0-16.2,0.1-24.3C401.7,590.6,397.5,590.7,397.5,590.7z"/>
		<polygon class="st1" points="423.3,604.1 415.3,590.5 407.7,590.7 419.5,610.1 419.4,625.6 426.6,625.5 426.6,610 438.9,590.6 
			431.2,591 		"/>
		<polygon class="st1" points="449.3,610.5 466.5,610.2 466.5,604.5 449.6,604.3 449.6,595.8 467.7,595.8 467.5,590.6 442.6,590.6 
			442.6,625.5 467.5,625.6 467.7,619.5 449.5,619.5 		"/>
		<polygon class="st1" points="473.5,590.6 473.5,625.7 480.3,625.7 480.3,603.9 493.9,625.5 500.4,625.5 500.5,590.7 494.2,590.8 
			494.2,613.9 480.2,590.6 		"/>
		<polygon class="st1" points="342.1,110.4 352.3,141.9 385.5,141.9 358.6,161.4 368.9,193 342.1,173.5 315.2,193 325.5,161.4 
			298.6,141.9 331.8,141.9 		"/>
	</g>
</g>
</svg>
